<svg xmlns="http://www.w3.org/2000/svg" viewBox="0 0 1600 900" role="img" aria-labelledby="title desc">
  <title id="title">M9d-Auth console client details screen</title>
  <desc id="desc">A Maintainerd Auth console screen showing the client details page with top navigation, left sidebar, client header, tabs, and overview panels.</desc>
  <defs>
    <filter id="shadow" x="-20%" y="-20%" width="140%" height="140%">
      <feDropShadow dx="0" dy="12" stdDeviation="18" flood-color="#0f172a" flood-opacity=".14"/>
    </filter>
    <style>
      .mono{font-family:ui-monospace,SFMono-Regular,Menlo,Monaco,Consolas,"Liberation Mono",monospace}
      .sans{font-family:Inter,ui-sans-serif,system-ui,-apple-system,BlinkMacSystemFont,"Segoe UI",sans-serif}
      .muted{fill:#64748b}
      .ink{fill:#0f172a}
      .line{stroke:#e2e8f0;stroke-width:1}
      .card{fill:#fff;stroke:#e2e8f0;stroke-width:1.2}
    </style>
  </defs>

  <rect width="1600" height="900" fill="#f8fafc"/>
  <rect width="1600" height="48" fill="#171717"/>

  <g transform="translate(18 10)">
    <path d="M18 0 34 7v12c0 11.2-6.6 19.8-16 22.8C8.6 38.8 2 30.2 2 19V7L18 0Z" fill="#2563eb"/>
    <text class="sans" x="46" y="23" font-size="18" font-weight="700" fill="#fff">M9d-Auth</text>
    <rect x="152" y="5" width="22" height="22" rx="7" fill="#3f3f46"/>
    <text class="sans" x="159" y="21" font-size="11" font-weight="700" fill="#fff">M</text>
    <text class="sans" x="184" y="22" font-size="14" font-weight="600" fill="#fff">maintainerd</text>
  </g>

  <g class="sans" fill="#d4d4d8" font-size="13">
    <text x="1210" y="30">Documentation</text>
    <text x="1314" y="30">API Reference</text>
    <text x="1410" y="30">Community</text>
    <circle cx="1510" cy="24" r="6" fill="#ef4444"/>
    <text x="1507" y="28" font-size="10" font-weight="700" fill="#fff">3</text>
    <circle cx="1572" cy="24" r="14" fill="#27272a"/>
    <text x="1564" y="29" font-size="12" font-weight="700" fill="#fff">RE</text>
  </g>

  <rect y="48" width="214" height="852" fill="#fff"/>
  <line x1="214" y1="48" x2="214" y2="900" class="line"/>

  <g class="sans" transform="translate(20 78)">
    <text x="0" y="0" font-size="12" fill="#52525b">Overview</text>
    <text x="22" y="28" font-size="14" fill="#18181b">Get Started</text>

    <text x="0" y="68" font-size="12" fill="#52525b">Identity &amp; Access</text>
    <text x="22" y="96" font-size="14" fill="#18181b">User Management</text>
    <text x="22" y="126" font-size="14" fill="#18181b">Authentication</text>

    <text x="0" y="166" font-size="12" fill="#52525b">Applications &amp; APIs</text>
    <text x="22" y="194" font-size="14" fill="#18181b">Applications</text>
    <text x="42" y="224" font-size="14" fill="#18181b">Clients</text>
    <text x="42" y="254" font-size="14" fill="#18181b">API Keys</text>
    <text x="22" y="284" font-size="14" fill="#18181b">APIs &amp; Resources</text>
    <text x="42" y="314" font-size="14" fill="#18181b">Services</text>
    <text x="42" y="344" font-size="14" fill="#18181b">APIs</text>
    <text x="42" y="374" font-size="14" fill="#18181b">Permissions</text>
    <text x="42" y="404" font-size="14" fill="#18181b">Policies</text>

    <text x="0" y="444" font-size="12" fill="#52525b">Security</text>
    <text x="22" y="472" font-size="14" fill="#18181b">Security</text>

    <text x="0" y="512" font-size="12" fill="#52525b">Operations</text>
    <text x="22" y="540" font-size="14" fill="#18181b">Events &amp; Webhooks</text>
    <text x="22" y="570" font-size="14" fill="#18181b">Monitoring</text>

    <text x="0" y="610" font-size="12" fill="#52525b">Administration</text>
    <text x="22" y="638" font-size="14" fill="#18181b">Organization</text>
    <text x="22" y="668" font-size="14" fill="#18181b">Settings</text>
  </g>

  <g transform="translate(430 84)">
    <text class="sans muted" x="0" y="0" font-size="14">← Back to Clients</text>
  </g>

  <g transform="translate(430 118)" filter="url(#shadow)">
    <rect class="card" width="960" height="202" rx="12"/>
    <rect x="20" y="24" width="48" height="48" rx="12" fill="#f1f5f9"/>
    <rect x="34" y="38" width="20" height="16" rx="2" fill="none" stroke="#64748b" stroke-width="2"/>
    <line x1="34" y1="43" x2="54" y2="43" stroke="#64748b" stroke-width="2"/>
    <text class="sans ink" x="84" y="45" font-size="20" font-weight="700">Maintainerd Auth Console</text>
    <rect x="282" y="30" width="62" height="20" rx="10" fill="#f8fafc" stroke="#e2e8f0"/>
    <circle cx="294" cy="40" r="3" fill="#10b981"/>
    <text class="sans ink" x="304" y="45" font-size="12" font-weight="600">Active</text>
    <rect x="352" y="30" width="68" height="20" rx="10" fill="#f8fafc" stroke="#e2e8f0"/>
    <text class="sans ink" x="374" y="45" font-size="12" font-weight="600">System</text>
    <text class="mono muted" x="84" y="66" font-size="13">auth-console</text>
    <rect x="886" y="24" width="54" height="32" rx="8" fill="#fff" stroke="#e2e8f0"/>
    <text class="sans ink" x="910" y="45" text-anchor="middle" font-size="14" font-weight="600">Edit</text>
    <line x1="20" y1="92" x2="940" y2="92" class="line"/>

    <g class="sans" font-size="13">
      <text class="muted" x="20" y="120" font-weight="700">CLIENT UUID</text>
      <text class="mono ink" x="20" y="140" font-size="12">4093f1b3-71e6-4b53-a899-50f05add5b04</text>
      <text class="muted" x="340" y="120" font-weight="700">CLIENT TYPE</text>
      <text class="ink" x="340" y="140">Single Page App</text>
      <text class="muted" x="660" y="120" font-weight="700">DOMAIN</text>
      <text class="mono ink" x="660" y="140" font-size="12">http://private.api.maintainerd.auth</text>
      <text class="muted" x="20" y="168" font-weight="700">CREATED</text>
      <text class="ink" x="20" y="188">Jun 12, 2026</text>
      <text class="muted" x="340" y="168" font-weight="700">LAST UPDATED</text>
      <text class="ink" x="340" y="188">Jun 12, 2026</text>
    </g>
  </g>

  <g class="sans" transform="translate(430 348)">
    <rect x="0" y="0" width="684" height="32" rx="8" fill="#f1f5f9"/>
    <g font-size="13" font-weight="700">
      <rect x="4" y="3" width="92" height="26" rx="7" fill="#fff" stroke="#e2e8f0"/>
      <text x="32" y="21" fill="#111827">Overview</text>
      <text x="130" y="21" fill="#111827">Credentials</text>
      <text x="238" y="21" fill="#111827">OAuth &amp; Tokens</text>
      <text x="382" y="21" fill="#111827">URIs &amp; Origins</text>
      <text x="504" y="21" fill="#111827">API Permissions</text>
      <text x="636" y="21" fill="#111827">Metadata</text>
    </g>
  </g>

  <g transform="translate(430 408)" filter="url(#shadow)">
    <rect class="card" width="960" height="258" rx="12"/>
    <text class="sans ink" x="20" y="36" font-size="16" font-weight="700">Client Overview</text>
    <text class="sans muted" x="20" y="60" font-size="13">Core client fields returned by the backend.</text>
    <g class="sans" font-size="14">
      <text class="muted" x="20" y="106">Display Name</text>
      <text class="ink" x="20" y="128">Maintainerd Auth Console</text>
      <text class="muted" x="340" y="106">Name</text>
      <text class="mono ink" x="340" y="128">auth-console</text>
      <text class="muted" x="660" y="106">Client UUID</text>
      <text class="mono ink" x="660" y="128" font-size="12">4093f1b3-71e6-4b53-a899-50f05add5b04</text>
      <text class="muted" x="20" y="166">Client Type</text>
      <text class="ink" x="20" y="188">Single Page Application</text>
      <text class="muted" x="340" y="166">Domain</text>
      <text class="mono ink" x="340" y="188" font-size="12">http://private.api.maintainerd.auth</text>
      <text class="muted" x="660" y="166">Status</text>
      <rect x="660" y="176" width="58" height="22" rx="11" fill="#f8fafc" stroke="#e2e8f0"/>
      <circle cx="674" cy="187" r="3" fill="#10b981"/>
      <text class="ink" x="684" y="191" font-size="12" font-weight="700">Active</text>
      <text class="muted" x="20" y="226">Created</text>
      <text class="ink" x="20" y="248">Jun 12, 2026, 5:56:16 PM</text>
      <text class="muted" x="340" y="226">Last Updated</text>
      <text class="ink" x="340" y="248">Jun 12, 2026, 5:56:16 PM</text>
    </g>
  </g>

  <g transform="translate(430 688)" filter="url(#shadow)">
    <rect class="card" width="960" height="160" rx="12"/>
    <text class="sans ink" x="20" y="36" font-size="16" font-weight="700">Identity Provider</text>
    <text class="sans muted" x="20" y="60" font-size="13">The provider pool this client authenticates through.</text>
    <rect x="20" y="88" width="34" height="34" rx="9" fill="#fff" stroke="#e2e8f0"/>
    <path d="M37 96 47 100v7c0 6.5-4.1 11.6-10 13.4-5.9-1.8-10-6.9-10-13.4v-7l10-4Z" fill="none" stroke="#0f172a" stroke-width="1.4"/>
    <text class="sans ink" x="66" y="104" font-size="14" font-weight="700">Built-in Authentication System</text>
    <rect x="240" y="90" width="50" height="20" rx="10" fill="#f8fafc" stroke="#e2e8f0"/>
    <text class="sans ink" x="252" y="104" font-size="11" font-weight="700">Internal</text>
    <rect x="298" y="90" width="58" height="20" rx="10" fill="#f8fafc" stroke="#e2e8f0"/>
    <circle cx="312" cy="100" r="3" fill="#10b981"/>
    <text class="sans ink" x="322" y="104" font-size="11" font-weight="700">Active</text>
    <text class="mono muted" x="66" y="126" font-size="12">EInByIPgFiQzIas</text>
  </g>
</svg>
